<mxfile host="app.diagrams.net" agent="Mozilla/5.0 (Windows NT 10.0; Win64; x64) AppleWebKit/537.36 (KHTML, like Gecko) Chrome/127.0.0.0 Safari/537.36 OPR/113.0.0.0" version="24.8.3">
  <diagram name="Page-1" id="-4ZKtQQxBMoz8fDLZo44">
    <mxGraphModel dx="585" dy="368" grid="1" gridSize="10" guides="1" tooltips="1" connect="1" arrows="1" fold="1" page="1" pageScale="1" pageWidth="850" pageHeight="1100" math="0" shadow="0">
      <root>
        <mxCell id="0" />
        <mxCell id="1" parent="0" />
        <mxCell id="9Dfs5gtmzo1oJqPArUrX-7" style="edgeStyle=orthogonalEdgeStyle;rounded=0;orthogonalLoop=1;jettySize=auto;html=1;entryX=0;entryY=0.5;entryDx=0;entryDy=0;endArrow=none;endFill=0;" edge="1" parent="1" source="9Dfs5gtmzo1oJqPArUrX-1" target="9Dfs5gtmzo1oJqPArUrX-6">
          <mxGeometry relative="1" as="geometry" />
        </mxCell>
        <mxCell id="9Dfs5gtmzo1oJqPArUrX-1" value="cliente" style="whiteSpace=wrap;html=1;align=center;" vertex="1" parent="1">
          <mxGeometry x="80" y="80" width="100" height="40" as="geometry" />
        </mxCell>
        <mxCell id="9Dfs5gtmzo1oJqPArUrX-2" value="perror" style="whiteSpace=wrap;html=1;align=center;" vertex="1" parent="1">
          <mxGeometry x="440" y="80" width="100" height="40" as="geometry" />
        </mxCell>
        <mxCell id="9Dfs5gtmzo1oJqPArUrX-3" value="lavadora" style="whiteSpace=wrap;html=1;align=center;" vertex="1" parent="1">
          <mxGeometry x="80" y="200" width="100" height="40" as="geometry" />
        </mxCell>
        <mxCell id="9Dfs5gtmzo1oJqPArUrX-4" value="empleado" style="whiteSpace=wrap;html=1;align=center;" vertex="1" parent="1">
          <mxGeometry x="280" y="200" width="100" height="40" as="geometry" />
        </mxCell>
        <mxCell id="9Dfs5gtmzo1oJqPArUrX-8" style="edgeStyle=orthogonalEdgeStyle;rounded=0;orthogonalLoop=1;jettySize=auto;html=1;endArrow=none;endFill=0;" edge="1" parent="1" source="9Dfs5gtmzo1oJqPArUrX-6" target="9Dfs5gtmzo1oJqPArUrX-2">
          <mxGeometry relative="1" as="geometry" />
        </mxCell>
        <mxCell id="9Dfs5gtmzo1oJqPArUrX-6" value="Posee" style="shape=rhombus;perimeter=rhombusPerimeter;whiteSpace=wrap;html=1;align=center;" vertex="1" parent="1">
          <mxGeometry x="250" y="70" width="120" height="60" as="geometry" />
        </mxCell>
        <mxCell id="9Dfs5gtmzo1oJqPArUrX-9" value="1:M" style="text;html=1;align=center;verticalAlign=middle;resizable=0;points=[];autosize=1;strokeColor=none;fillColor=none;" vertex="1" parent="1">
          <mxGeometry x="290" y="40" width="40" height="30" as="geometry" />
        </mxCell>
        <mxCell id="9Dfs5gtmzo1oJqPArUrX-12" value="1:1" style="text;html=1;align=center;verticalAlign=middle;resizable=0;points=[];autosize=1;strokeColor=none;fillColor=none;" vertex="1" parent="1">
          <mxGeometry x="180" y="70" width="40" height="30" as="geometry" />
        </mxCell>
        <mxCell id="9Dfs5gtmzo1oJqPArUrX-13" value="1:M" style="text;html=1;align=center;verticalAlign=middle;resizable=0;points=[];autosize=1;strokeColor=none;fillColor=none;" vertex="1" parent="1">
          <mxGeometry x="405" y="70" width="40" height="30" as="geometry" />
        </mxCell>
      </root>
    </mxGraphModel>
  </diagram>
</mxfile>
